<?xml version="1.0" standalone="no"?>
<!DOCTYPE svg PUBLIC "-//W3C//DTD SVG 20010904//EN"
 "http://www.w3.org/TR/2001/REC-SVG-20010904/DTD/svg10.dtd">
<svg version="1.0" xmlns="http://www.w3.org/2000/svg"
 width="2000.000000pt" height="738.000000pt" viewBox="0 0 2000.000000 738.000000"
 preserveAspectRatio="xMidYMid meet">

<g transform="translate(0.000000,738.000000) scale(0.100000,-0.100000)"
fill="#000000" stroke="none">
<path d="M3120 7373 c-146 -15 -340 -73 -483 -144 -146 -72 -239 -140 -368
-269 -222 -221 -355 -475 -421 -802 -20 -98 -23 -143 -23 -338 0 -191 4 -243
23 -345 43 -230 117 -460 215 -668 l51 -109 -18 -66 c-56 -203 -70 -261 -99
-409 l-33 -162 -44 30 c-176 119 -395 186 -640 196 -374 15 -708 -105 -940
-337 -317 -317 -423 -825 -270 -1286 135 -405 447 -669 885 -750 128 -23 340
-21 474 5 268 53 462 152 645 333 55 54 100 97 101 95 1 -1 35 -66 75 -144
131 -258 267 -449 461 -648 l117 -120 12 -80 c86 -604 455 -1052 1031 -1253
718 -251 1578 -19 2060 556 304 363 450 768 452 1249 1 126 4 180 12 174 27
-23 199 -101 270 -125 180 -58 439 -75 630 -41 244 43 468 153 634 310 229
217 341 499 341 862 0 353 -102 644 -302 857 -199 214 -476 331 -813 343 -373
14 -707 -108 -941 -344 -169 -171 -299 -445 -320 -673 -3 -36 -8 -71 -10 -79
-3 -9 -32 13 -82 60 -207 198 -451 338 -815 469 -99 36 -143 56 -134 62 8 4
62 23 121 42 464 153 791 512 886 974 77 381 -7 741 -246 1048 -245 315 -623
503 -1100 545 -71 7 -130 13 -132 14 -1 1 -9 44 -17 96 -69 456 -422 791 -907
863 -96 15 -248 19 -338 9z m346 -58 c472 -83 813 -418 859 -846 l7 -66 -99
-7 c-221 -15 -466 -65 -652 -132 -467 -169 -879 -518 -1184 -1002 -65 -104
-189 -341 -237 -452 l-23 -55 -39 85 c-245 528 -298 997 -166 1453 39 135 136
334 219 451 204 286 551 510 885 570 108 19 320 20 430 1z m864 -1032 c0 -85
-30 -228 -64 -312 -104 -255 -349 -434 -699 -510 -84 -18 -130 -21 -357 -21
l-260 0 0 -62 c0 -107 53 -190 145 -229 23 -10 173 -15 620 -19 l590 -6 96
-26 c250 -68 389 -200 434 -413 32 -153 7 -342 -64 -490 -72 -147 -177 -231
-348 -274 -72 -19 -111 -21 -342 -21 l-261 0 0 -169 0 -170 323 -3 c298 -4
328 -6 396 -27 363 -109 541 -383 517 -796 -19 -328 -151 -533 -407 -629 -102
-38 -256 -60 -373 -53 -421 26 -670 278 -758 767 -19 110 -20 154 -22 930 -1
754 -2 820 -19 875 -33 111 -92 178 -192 221 -30 13 -71 18 -170 18 l-130 1
-3 -437 c-1 -290 -6 -438 -12 -438 -14 0 -175 81 -231 115 -178 112 -384 319
-527 532 l-42 61 41 97 c324 781 891 1314 1583 1490 113 28 184 41 341 59 17
1 67 4 113 5 l82 1 0 -67z m252 56 c255 -27 500 -117 718 -262 91 -61 261
-229 320 -316 139 -207 210 -446 210 -705 0 -339 -114 -630 -339 -868 -110
-117 -280 -234 -426 -292 l-40 -16 30 22 c61 44 181 175 218 238 81 141 119
330 98 497 -51 416 -344 684 -851 778 -74 14 -173 19 -449 24 l-354 6 79 32
c292 120 486 326 553 589 16 61 40 221 41 277 0 10 72 9 192 -4z m-2362 -1803
c160 -233 381 -422 652 -557 l106 -53 5 -525 c4 -564 9 -631 62 -827 49 -187
120 -318 243 -445 227 -238 580 -370 997 -372 562 -3 1035 233 1224 610 124
247 124 595 0 863 l-39 85 46 -50 c83 -92 154 -264 190 -460 8 -49 18 -164 21
-255 18 -564 -179 -996 -577 -1269 -436 -299 -1062 -371 -1625 -186 -142 47
-363 156 -490 243 l-100 68 3 129 c2 72 10 166 18 210 24 126 28 182 14 215
-23 55 -84 49 -115 -11 -21 -40 -38 -240 -29 -352 6 -87 6 -89 -14 -78 -28 15
-181 187 -263 296 -100 134 -172 251 -261 431 l-79 161 36 65 c90 164 134 339
142 563 13 380 -94 697 -314 927 l-64 66 21 119 c36 201 116 492 130 475 4 -4
31 -42 60 -86z m-895 -541 c166 -35 325 -150 413 -300 108 -184 159 -476 133
-770 -25 -291 -102 -466 -263 -603 -117 -99 -258 -152 -403 -152 -310 0 -562
231 -659 603 -76 290 -46 647 74 891 126 255 417 391 705 331z m5880 0 c156
-33 307 -137 396 -272 153 -234 202 -681 114 -1028 -79 -314 -333 -525 -630
-525 -296 0 -532 202 -643 550 -42 131 -55 231 -54 397 3 396 125 673 357 808
127 75 307 102 460 70z m-1712 -562 c118 -78 218 -157 313 -249 l71 -69 7
-105 c13 -190 57 -354 138 -512 62 -121 122 -201 230 -304 l85 -80 7 -110 c7
-121 -5 -304 -29 -434 -85 -452 -373 -913 -725 -1162 -175 -124 -440 -242
-685 -303 -184 -47 -296 -58 -493 -52 -269 8 -478 60 -717 178 -434 215 -722
608 -752 1029 l-6 84 29 -19 c423 -280 809 -396 1264 -382 486 15 841 155
1130 446 260 262 383 544 421 964 23 252 -17 519 -107 724 -68 155 -181 302
-329 432 l-50 44 50 -28 c28 -15 94 -57 148 -92z"/>
<path d="M8640 3824 c0 -716 4 -1183 10 -1239 14 -123 34 -193 87 -304 37 -78
58 -107 126 -175 95 -94 183 -143 325 -179 123 -30 394 -30 567 2 66 12 124
26 129 31 7 7 -44 234 -56 245 -2 2 -32 -3 -68 -11 -36 -8 -110 -17 -165 -20
-227 -14 -370 66 -426 238 l-24 73 0 725 0 725 363 3 362 2 0 145 0 145 -365
0 -365 0 0 243 c0 296 -6 324 -83 402 -72 71 -119 86 -284 92 l-133 5 0 -1148z"/>
<path d="M14365 4880 c-112 -137 -303 -299 -476 -402 -161 -98 -401 -204 -606
-268 l-103 -33 0 -148 c0 -82 4 -149 8 -149 5 0 35 9 68 20 191 66 432 110
604 110 141 0 232 -19 328 -66 182 -89 271 -253 272 -496 l0 -98 -237 0 c-287
0 -431 -12 -578 -49 -219 -56 -368 -132 -482 -247 -249 -252 -259 -711 -19
-948 151 -149 354 -213 646 -203 258 8 446 83 622 245 37 35 59 49 62 41 2 -8
9 -34 16 -58 8 -31 28 -60 63 -95 69 -68 125 -87 280 -94 l119 -5 -5 814 c-3
538 -9 833 -16 871 -44 224 -144 389 -299 492 -145 96 -302 140 -573 161 l-76
6 121 63 c317 164 545 346 686 547 l41 59 -204 0 -205 0 -57 -70z m95 -1992
c0 -300 -29 -388 -171 -530 -59 -59 -95 -85 -160 -117 -334 -161 -627 -41
-672 276 -14 100 3 218 43 300 69 140 234 227 483 253 39 4 163 8 275 9 l202
1 0 -192z"/>
<path d="M12140 4289 c-183 -17 -363 -67 -504 -139 -439 -225 -665 -692 -606
-1248 33 -304 147 -555 333 -727 133 -124 329 -210 577 -252 133 -23 422 -22
557 0 171 29 349 86 341 109 -3 7 -22 70 -43 139 l-37 126 -65 -33 c-113 -57
-184 -69 -393 -69 -176 0 -189 2 -265 28 -201 70 -325 190 -406 392 -63 158
-89 306 -89 508 0 405 138 678 405 803 114 53 194 73 320 81 131 7 256 -10
380 -53 55 -19 108 -37 118 -40 16 -6 17 5 17 143 l0 149 -47 17 c-84 29 -215
56 -328 67 -121 11 -141 11 -265 -1z"/>
<path d="M18625 4275 c-184 -30 -394 -113 -534 -212 -460 -328 -606 -1023
-329 -1565 60 -119 122 -202 220 -294 91 -86 137 -118 253 -177 179 -90 349
-128 570 -128 165 0 277 18 425 67 228 76 426 215 562 394 65 84 140 240 174
360 25 89 27 111 31 336 4 200 2 256 -12 325 -97 477 -393 778 -870 884 -101
23 -376 28 -490 10z m320 -280 c156 -33 307 -137 396 -272 152 -233 202 -681
114 -1027 -79 -315 -333 -526 -630 -526 -296 0 -532 202 -643 550 -42 132 -56
232 -54 396 3 505 199 812 563 883 69 14 178 12 254 -4z"/>
<path d="M15953 4245 c-215 -39 -379 -141 -483 -299 -44 -69 -70 -129 -103
-241 -20 -68 -21 -95 -24 -908 l-4 -837 248 2 248 3 5 870 5 870 23 57 c33 81
97 149 174 183 54 24 79 29 173 33 98 4 145 0 278 -24 l37 -7 0 141 0 140 -27
6 c-137 28 -426 34 -550 11z"/>
<path d="M10170 3095 l0 -1135 248 2 247 3 3 1133 2 1132 -250 0 -250 0 0
-1135z"/>
<path d="M16752 3098 l3 -1133 248 -3 247 -2 0 1135 0 1135 -250 0 -250 0 2
-1132z"/>
</g>
</svg>
